<?xml version="1.0" encoding="utf-8"?>
<!-- Generator: Adobe Illustrator 22.0.1, SVG Export Plug-In . SVG Version: 6.00 Build 0)  -->
<svg version="1.1" id="Layer_1" xmlns="http://www.w3.org/2000/svg" xmlns:xlink="http://www.w3.org/1999/xlink" x="0px" y="0px"
	 viewBox="0 0 640 480" style="enable-background:new 0 0 640 480;" xml:space="preserve">
<path d="M56.5,136.5c77-10,103.9,12,167,64c12.9,6.5,19.7-3.6,20-31c7.5,18.3,17.4,18.5,30-1c-3.3,21.4-0.1,35,17,32
	c112.9-50.8,144-58,215-34c-43.9,10.1-100.1,38.1-88,71c-31.5-21.9-54.4-14.3-71,15c-29.2-15.5-46.2,2.6-63,21
	c-21.4-25.3-43.8-28.1-67-12c-16.5-28.1-38.2-23.8-61-13c4.9-30-1.1-52.4-50-44C131.3,184.3,80.1,149.9,56.5,136.5z"/>
</svg>
