<?xml version="1.0" encoding="utf-8"?>
<!-- Generator: Adobe Illustrator 22.0.1, SVG Export Plug-In . SVG Version: 6.00 Build 0)  -->
<svg version="1.1" xmlns="http://www.w3.org/2000/svg" xmlns:xlink="http://www.w3.org/1999/xlink" x="0px" y="0px"
	 viewBox="0 0 2124 161.1" style="enable-background:new 0 0 2124 161.1;" xml:space="preserve">
<style type="text/css">
	.st0{display:none;}
	.st1{display:inline;}
</style>
<g id="Layer_4" class="st0">
	<g class="st1">
		
			<image style="overflow:visible;" width="450" height="470" id="yUN4b5" xlink:href="DFECD7EB78B77A44.jpg"  transform="matrix(0.4378 0 0 0.4378 696.0817 137.0038)">
		</image>
	</g>
</g>
<g id="Layer_1" class="st0">
	<path class="st1" d="M-680.3,687.6c77-10,103.9,12,167,64c12.9,6.5,19.7-3.6,20-31c7.5,18.3,17.4,18.5,30-1c-3.3,21.4-0.1,35,17,32
		c112.9-50.8,144-58,215-34c-43.9,10.1-100.1,38.1-88,71c-31.5-21.9-54.4-14.3-71,15c-29.2-15.5-46.2,2.6-63,21
		c-21.4-25.3-43.8-28.1-67-12c-16.5-28.1-38.2-23.8-61-13c4.9-30-1.1-52.4-50-44C-605.5,735.4-656.6,701-680.3,687.6z"/>
</g>
<g id="Layer_2" class="st0">
	<path class="st1" d="M-634.8,593.1c77-10,37.4,102.5,100.5,154.5c12.9,6.5,19.7-3.6,20-31c7.5,18.3,17.4,18.5,30-1
		c-3.3,21.4-0.1,35,17,32c112.9-50.8,29.5-116.5,118.5-148.5c-23,63-3.1,75.1,9,108c-31.5-21.9-54.9,63.2-71.5,92.5
		c-29.2-15.5-46.7-15.9-63.5,2.5c-21.4-25.3-41.8-22.1-65-6c-16.5-28.1-39.7-11.3-62.5-0.5c4.9-30,6.4-107.9-42.5-99.5
		C-619,675.9-611.1,606.5-634.8,593.1z"/>
</g>
<g id="Layer_3" class="st0">
	<path class="st1" d="M-573.8,592.1c77-10-23.6,103.5,39.5,155.5c12.9,6.5,19.7-3.6,20-31c7.5,18.3,17.4,18.5,30-1
		c-3.3,21.4-0.1,35,17,32c112.9-50.8-22.5-124.5,66.5-156.5c-23,63,33.9,62.1,46,95c-31.5-21.9-22.4,46.7-39,76
		c-29.2-15.5-64.2,21.6-81,40c-21.4-25.3-41.8-22.1-65-6c-16.5-28.1-31.2-66.8-54-56c4.9-30,21.9-106.4-27-98
		C-595,621.9-550.1,605.5-573.8,592.1z"/>
</g>
<g id="Layer_1_copy" class="st0">
	<path class="st1" d="M-716.8,799.1c-23-31,140.4-99.5,203.5-47.5c12.9,6.5,19.7-3.6,20-31c7.5,18.3,17.4,18.5,30-1
		c-3.3,21.4-0.1,35,17,32c112.9-50.8,243.5,19.5,251.5,59.5c-50-43-135.1-45.9-123-13c-31.5-21.9-68.4-2.3-85,27
		c-29.2-15.5-33.7-18.9-50.5-0.5c-21.4-25.3-43.8-28.1-67-12c-16.5-28.1-23.7-7.3-46.5,3.5c4.9-30-13.1-38.4-62-30
		C-603,765.9-695.8,766.1-716.8,799.1z"/>
</g>
<g id="Layer_1_copy_2" class="st0">
	<path class="st1" d="M-643.8,927.1c-38-65.1-18.7-123,72-172c26,25,70-4,70-4s8.2-3.1,8.5-30.5c7.5,18.3,17.4,18.5,30-1
		c-3.3,21.4-0.5,29.5,9.5,34.5c16.5,23,45.2,14.9,68-1c144.7,7.6,130.2,109.1,97,174c12.6-38.4,6-67.6-33-81c0.1-27,2-34.7-44-23
		c-20.4-21.6-37.7-29.9-60-7c-19.2-30.8-32.5-24-55,1c-19.2-20.4-51.9-24.2-70-3c-15.6-15.7-40.2-17.4-50,24
		C-635.9,845.9-647.1,873.1-643.8,927.1z"/>
</g>
<g id="Layer_7">
	<g>
		<path d="M6.7,43.4c31.8-4.1,43,5,69,26.5c5.3,2.7,8.1-1.5,8.3-12.8c3.1,7.6,7.2,7.7,12.4-0.4c-1.4,8.9,0,14.5,7,13.2
			c46.7-21,59.5-24,88.9-14.1c-18.1,4.2-41.4,15.8-36.4,29.3c-13-9.1-22.5-5.9-29.3,6.2c-12.1-6.4-19.1,1.1-26,8.7
			c-8.8-10.4-18.1-11.6-27.7-5C66,83.5,57,85.2,47.6,89.7c2-12.4-0.4-21.7-20.7-18.2C37.6,63.2,16.5,49,6.7,43.4z"/>
		<path d="M876.4,43.4c31.8-4.1,43,5,69,26.5c5.3,2.7,8.1-1.5,8.3-12.8c3.1,7.6,7.2,7.7,12.4-0.4c-1.4,8.9,0,14.5,7,13.2
			c46.7-21,59.5-24,88.9-14.1c-18.1,4.2-41.4,15.8-36.4,29.3c-13-9.1-22.5-5.9-29.3,6.2c-12.1-6.4-19.1,1.1-26,8.7
			c-8.8-10.4-18.1-11.6-27.7-5c-6.8-11.6-15.8-9.9-25.2-5.4c2-12.4-0.4-21.7-20.7-18.2C907.3,63.2,886.2,49,876.4,43.4z"/>
		<path d="M1125.8,4.4c31.8-4.1,15.5,42.4,41.5,63.9c5.3,2.7,8.1-1.5,8.3-12.8c3.1,7.6,7.2,7.7,12.4-0.4c-1.4,8.9,0,14.5,7,13.2
			c46.7-21,12.2-48.2,49-61.4c-9.5,26-1.3,31.1,3.7,44.6c-13-9.1-22.7,26.1-29.6,38.2c-12.1-6.4-19.3-6.6-26.2,1
			c-8.8-10.4-17.3-9.1-26.9-2.5c-6.8-11.6-16.4-4.7-25.8-0.2c2-12.4,2.7-44.6-17.6-41.1C1132.3,38.6,1135.5,9.9,1125.8,4.4z"/>
		<path d="M1572.2,4.4c31.8-4.1,15.5,42.4,41.5,63.9c5.3,2.7,8.1-1.5,8.3-12.8c3.1,7.6,7.2,7.7,12.4-0.4c-1.4,8.9,0,14.5,7,13.2
			c46.7-21,12.2-48.2,49-61.4c-9.5,26-1.3,31.1,3.7,44.6c-13-9.1-22.7,26.1-29.6,38.2c-12.1-6.4-19.3-6.6-26.2,1
			c-8.8-10.4-17.3-9.1-26.9-2.5c-6.8-11.6-16.4-4.7-25.8-0.2c2-12.4,2.7-44.6-17.6-41.1C1578.7,38.6,1581.9,9.9,1572.2,4.4z"/>
		<path d="M1374.2,3.9c31.8-4.1-9.7,42.8,16.3,64.3c5.3,2.7,8.1-1.5,8.3-12.8c3.1,7.6,7.2,7.7,12.4-0.4c-1.4,8.9,0,14.5,7,13.2
			c46.7-21-9.3-51.5,27.5-64.7c-9.5,26,14,25.7,19,39.3c-13-9.1-9.2,19.3-16.1,31.4c-12.1-6.4-26.5,8.9-33.5,16.5
			c-8.8-10.4-17.3-9.1-26.9-2.5c-6.8-11.6-12.9-27.6-22.3-23.1c2-12.4,9.1-44-11.2-40.5C1365.4,16.3,1383.9,9.5,1374.2,3.9z"/>
		<path d="M206.5,89.5c-9.5-12.8,58-41.1,84.1-19.6c5.3,2.7,8.1-1.5,8.3-12.8c3.1,7.6,7.2,7.7,12.4-0.4c-1.4,8.9,0,14.5,7,13.2
			c46.7-21,100.6,8.1,104,24.6c-20.7-17.8-55.8-19-50.8-5.4c-13-9.1-28.3-0.9-35.1,11.2c-12.1-6.4-13.9-7.8-20.9-0.2
			c-8.8-10.4-18.1-11.6-27.7-5c-6.8-11.6-9.8-3-19.2,1.4c2-12.4-5.4-15.9-25.6-12.4C253.6,75.8,215.2,75.9,206.5,89.5z"/>
		<path d="M645.1,89.5c-9.5-12.8,58-41.1,84.1-19.6c5.3,2.7,8.1-1.5,8.3-12.8c3.1,7.6,7.2,7.7,12.4-0.4c-1.4,8.9,0,14.5,7,13.2
			c46.7-21,100.6,8.1,104,24.6c-20.7-17.8-55.8-19-50.8-5.4c-13-9.1-28.3-0.9-35.1,11.2c-12.1-6.4-13.9-7.8-20.9-0.2
			c-8.8-10.4-18.1-11.6-27.7-5c-6.8-11.6-9.8-3-19.2,1.4c2-12.4-5.4-15.9-25.6-12.4C692.1,75.8,653.7,75.9,645.1,89.5z"/>
		<path d="M460.7,142.4c-15.7-26.9-7.7-50.9,29.8-71.1c10.7,10.3,28.9-1.7,28.9-1.7s3.4-1.3,3.5-12.6c3.1,7.6,7.2,7.7,12.4-0.4
			c-1.4,8.9-0.2,12.2,3.9,14.3c6.8,9.5,18.7,6.1,28.1-0.4c59.8,3.2,53.8,45.1,40.1,71.9c5.2-15.9,2.5-27.9-13.6-33.5
			c0-11.2,0.8-14.4-18.2-9.5c-8.4-8.9-15.6-12.4-24.8-2.9c-7.9-12.7-13.4-9.9-22.7,0.4c-7.9-8.4-21.5-10-28.9-1.2
			c-6.4-6.5-16.6-7.2-20.7,9.9C464,108.9,459.4,120.1,460.7,142.4z"/>
	</g>
	<rect x="369.1" y="517" width="212" height="161"/>
	<g>
		<path d="M1713.7,39.4c31.8-4.1,43,5,69,26.5c5.3,2.7,8.1-1.5,8.3-12.8c3.1,7.6,7.2,7.7,12.4-0.4c-1.4,8.9,0,14.5,7,13.2
			c46.7-21,59.5-24,88.9-14.1c-18.1,4.2-41.4,15.8-36.4,29.3c-13-9.1-22.5-5.9-29.3,6.2c-12.1-6.4-19.1,1.1-26,8.7
			c-8.8-10.4-18.1-11.6-27.7-5c-6.8-11.6-15.8-9.9-25.2-5.4c2-12.4-0.4-21.7-20.7-18.2C1744.6,59.2,1723.5,45,1713.7,39.4z"/>
		<path d="M2583.4,39.4c31.8-4.1,43,5,69,26.5c5.3,2.7,8.1-1.5,8.3-12.8c3.1,7.6,7.2,7.7,12.4-0.4c-1.4,8.9,0,14.5,7,13.2
			c46.7-21,59.5-24,88.9-14.1c-18.1,4.2-41.4,15.8-36.4,29.3c-13-9.1-22.5-5.9-29.3,6.2c-12.1-6.4-19.1,1.1-26,8.7
			c-8.8-10.4-18.1-11.6-27.7-5c-6.8-11.6-15.8-9.9-25.2-5.4c2-12.4-0.4-21.7-20.7-18.2C2614.3,59.2,2593.2,45,2583.4,39.4z"/>
		<path d="M2832.8,0.4c31.8-4.1,15.5,42.4,41.5,63.9c5.3,2.7,8.1-1.5,8.3-12.8c3.1,7.6,7.2,7.7,12.4-0.4c-1.4,8.9,0,14.5,7,13.2
			c46.7-21,12.2-48.2,49-61.4c-9.5,26-1.3,31.1,3.7,44.6c-13-9.1-22.7,26.1-29.6,38.2c-12.1-6.4-19.3-6.6-26.2,1
			c-8.8-10.4-17.3-9.1-26.9-2.5c-6.8-11.6-16.4-4.7-25.8-0.2c2-12.4,2.7-44.6-17.6-41.1C2839.3,34.6,2842.5,5.9,2832.8,0.4z"/>
		<path d="M3279.2,0.4c31.8-4.1,15.5,42.4,41.5,63.9c5.3,2.7,8.1-1.5,8.3-12.8c3.1,7.6,7.2,7.7,12.4-0.4c-1.4,8.9,0,14.5,7,13.2
			c46.7-21,12.2-48.2,49-61.4c-9.5,26-1.3,31.1,3.7,44.6c-13-9.1-22.7,26.1-29.6,38.2c-12.1-6.4-19.3-6.6-26.2,1
			c-8.8-10.4-17.3-9.1-26.9-2.5c-6.8-11.6-16.4-4.7-25.8-0.2c2-12.4,2.7-44.6-17.6-41.1C3285.7,34.6,3288.9,5.9,3279.2,0.4z"/>
		<path d="M3081.2-0.1c31.8-4.1-9.7,42.8,16.3,64.3c5.3,2.7,8.1-1.5,8.3-12.8c3.1,7.6,7.2,7.7,12.4-0.4c-1.4,8.9,0,14.5,7,13.2
			c46.7-21-9.3-51.5,27.5-64.7c-9.5,26,14,25.7,19,39.3c-13-9.1-9.2,19.3-16.1,31.4c-12.1-6.4-26.5,8.9-33.5,16.5
			c-8.8-10.4-17.3-9.1-26.9-2.5c-6.8-11.6-12.9-27.6-22.3-23.1c2-12.4,9.1-44-11.2-40.5C3072.4,12.3,3090.9,5.5,3081.2-0.1z"/>
		<path d="M1913.5,85.5c-9.5-12.8,58-41.1,84.1-19.6c5.3,2.7,8.1-1.5,8.3-12.8c3.1,7.6,7.2,7.7,12.4-0.4c-1.4,8.9,0,14.5,7,13.2
			c46.7-21,100.6,8.1,104,24.6c-20.7-17.8-55.8-19-50.8-5.4c-13-9.1-28.3-0.9-35.1,11.2c-12.1-6.4-13.9-7.8-20.9-0.2
			c-8.8-10.4-18.1-11.6-27.7-5c-6.8-11.6-9.8-3-19.2,1.4c2-12.4-5.4-15.9-25.6-12.4C1960.6,71.8,1922.2,71.9,1913.5,85.5z"/>
		<path d="M2352.1,85.5c-9.5-12.8,58-41.1,84.1-19.6c5.3,2.7,8.1-1.5,8.3-12.8c3.1,7.6,7.2,7.7,12.4-0.4c-1.4,8.9,0,14.5,7,13.2
			c46.7-21,100.6,8.1,104,24.6c-20.7-17.8-55.8-19-50.8-5.4c-13-9.1-28.3-0.9-35.1,11.2c-12.1-6.4-13.9-7.8-20.9-0.2
			c-8.8-10.4-18.1-11.6-27.7-5c-6.8-11.6-9.8-3-19.2,1.4c2-12.4-5.4-15.9-25.6-12.4C2399.1,71.8,2360.7,71.9,2352.1,85.5z"/>
		<path d="M2167.7,138.4c-15.7-26.9-7.7-50.9,29.8-71.1c10.7,10.3,28.9-1.7,28.9-1.7s3.4-1.3,3.5-12.6c3.1,7.6,7.2,7.7,12.4-0.4
			c-1.4,8.9-0.2,12.2,3.9,14.3c6.8,9.5,18.7,6.1,28.1-0.4c59.8,3.2,53.8,45.1,40.1,71.9c5.2-15.9,2.5-27.9-13.6-33.5
			c0-11.2,0.8-14.4-18.2-9.5c-8.4-8.9-15.6-12.4-24.8-2.9c-7.9-12.7-13.4-9.9-22.7,0.4c-7.9-8.4-21.5-10-28.9-1.2
			c-6.4-6.5-16.6-7.2-20.7,9.9C2171,104.9,2166.4,116.1,2167.7,138.4z"/>
	</g>
</g>
<g id="Layer_8" class="st0">
</g>
</svg>
